<svg width="1024" height="1024" viewBox="0 0 1024 1024" fill="none" xmlns="http://www.w3.org/2000/svg">
  <defs>
    <linearGradient id="bg" x1="188" y1="172" x2="844" y2="844" gradientUnits="userSpaceOnUse">
      <stop offset="0" stop-color="#72F0D2"/>
      <stop offset="0.46" stop-color="#47A3FF"/>
      <stop offset="1" stop-color="#2F63F6"/>
    </linearGradient>
    <linearGradient id="gloss" x1="248" y1="196" x2="654" y2="592" gradientUnits="userSpaceOnUse">
      <stop offset="0" stop-color="#FFFFFF" stop-opacity="0.52"/>
      <stop offset="0.5" stop-color="#FFFFFF" stop-opacity="0.14"/>
      <stop offset="1" stop-color="#FFFFFF" stop-opacity="0"/>
    </linearGradient>
    <filter id="shadow" x="108" y="108" width="808" height="840" filterUnits="userSpaceOnUse" color-interpolation-filters="sRGB">
      <feFlood flood-opacity="0" result="BackgroundImageFix"/>
      <feColorMatrix in="SourceAlpha" type="matrix" values="0 0 0 0 0 0 0 0 0 0 0 0 0 0 0 0 0 0 127 0" result="hardAlpha"/>
      <feOffset dy="32"/>
      <feGaussianBlur stdDeviation="34"/>
      <feComposite in2="hardAlpha" operator="out"/>
      <feColorMatrix type="matrix" values="0 0 0 0 0.0431373 0 0 0 0 0.160784 0 0 0 0 0.501961 0 0 0 0.22 0"/>
      <feBlend mode="normal" in2="BackgroundImageFix" result="effect1_dropShadow_1_1"/>
      <feBlend mode="normal" in="SourceGraphic" in2="effect1_dropShadow_1_1" result="shape"/>
    </filter>
    <filter id="markShadow" x="244" y="216" width="540" height="592" filterUnits="userSpaceOnUse" color-interpolation-filters="sRGB">
      <feFlood flood-opacity="0" result="BackgroundImageFix"/>
      <feColorMatrix in="SourceAlpha" type="matrix" values="0 0 0 0 0 0 0 0 0 0 0 0 0 0 0 0 0 0 127 0" result="hardAlpha"/>
      <feOffset dy="10"/>
      <feGaussianBlur stdDeviation="12"/>
      <feComposite in2="hardAlpha" operator="out"/>
      <feColorMatrix type="matrix" values="0 0 0 0 0.0509804 0 0 0 0 0.172549 0 0 0 0 0.458824 0 0 0 0.18 0"/>
      <feBlend mode="normal" in2="BackgroundImageFix" result="effect1_dropShadow_1_2"/>
      <feBlend mode="normal" in="SourceGraphic" in2="effect1_dropShadow_1_2" result="shape"/>
    </filter>
  </defs>

  <g filter="url(#shadow)">
    <rect x="156" y="132" width="712" height="712" rx="176" fill="url(#bg)"/>
    <rect x="184" y="160" width="656" height="656" rx="148" fill="url(#gloss)"/>
    <path d="M238 232C238 218.745 248.745 208 262 208H646C659.255 208 670 218.745 670 232V308C670 321.255 659.255 332 646 332H262C248.745 332 238 321.255 238 308V232Z" fill="#FFFFFF" fill-opacity="0.17"/>
  </g>

  <g filter="url(#markShadow)">
    <rect x="310" y="286" width="72" height="452" rx="36" fill="#F9FCFF"/>
    <rect x="364" y="286" width="248" height="72" rx="36" fill="#F9FCFF"/>
    <rect x="364" y="474" width="198" height="72" rx="36" fill="#F9FCFF"/>
    <rect x="622" y="550" width="56" height="188" rx="28" fill="#F9FCFF"/>
    <rect x="706" y="474" width="56" height="264" rx="28" fill="#F9FCFF"/>
  </g>

  <circle cx="752" cy="270" r="56" fill="#FFFFFF" fill-opacity="0.24"/>
  <circle cx="752" cy="270" r="22" fill="#FFFFFF" fill-opacity="0.7"/>
</svg>
